<?xml version="1.0" encoding="utf-8"?><!-- Uploaded to: SVG Repo, www.svgrepo.com, Generator: SVG Repo Mixer Tools -->
<svg width="800px" height="800px" viewBox="0 0 24 24" fill="none" xmlns="http://www.w3.org/2000/svg">
<path fill-rule="evenodd" clip-rule="evenodd" d="M7 4C4.23858 4 2 6.23858 2 9V15C2 17.7614 4.23858 20 7 20H17C19.7614 20 22 17.7614 22 15V9C22 6.23858 19.7614 4 17 4H7Z" fill="#4296FF"/>
<path fill-rule="evenodd" clip-rule="evenodd" d="M6.21917 8.37534C6.56418 7.94408 7.19347 7.87416 7.62473 8.21917L10.126 10.2201C11.2216 11.0967 12.7785 11.0967 13.8741 10.2201L16.3753 8.21917C16.8066 7.87416 17.4359 7.94408 17.7809 8.37534C18.1259 8.8066 18.056 9.4359 17.6247 9.78091L15.1235 11.7819C13.2974 13.2428 10.7027 13.2428 8.87656 11.7819L6.37534 9.78091C5.94408 9.4359 5.87416 8.8066 6.21917 8.37534Z" fill="#152C70"/>
</svg>