<?xml version="1.0" encoding="iso-8859-1"?>
<!-- Generator: Adobe Illustrator 19.0.0, SVG Export Plug-In . SVG Version: 6.00 Build 0)  -->
<svg version="1.1" id="Layer_1" xmlns="http://www.w3.org/2000/svg" xmlns:xlink="http://www.w3.org/1999/xlink" x="0px" y="0px"
	 viewBox="0 0 512 512" style="enable-background:new 0 0 512 512;" xml:space="preserve">
<path style="fill:#B4E66E;" d="M486.013,410.816H25.987c-9.772,0-17.693-7.921-17.693-17.693V118.877
	c0-9.772,7.921-17.693,17.693-17.693h460.026c9.772,0,17.693,7.921,17.693,17.693v274.246
	C503.706,402.895,495.785,410.816,486.013,410.816z"/>
<path style="fill:#A0D755;" d="M106.344,393.123V118.877c0-9.771,7.921-17.693,17.693-17.693H25.987
	c-9.772,0-17.693,7.922-17.693,17.693v274.246c0,9.771,7.921,17.693,17.693,17.693h98.051
	C114.266,410.816,106.344,402.894,106.344,393.123z"/>
<path d="M79.067,197.944c4.58,0,8.294-3.713,8.294-8.294v-17.693c0-0.305,0.248-0.553,0.553-0.553h61.927
	c4.58,0,8.294-3.713,8.294-8.294s-3.713-8.294-8.294-8.294H87.914c-9.452,0-17.14,7.689-17.14,17.14v17.693
	C70.773,194.23,74.487,197.944,79.067,197.944z"/>
<path d="M70.773,278.117c0,9.452,7.689,17.14,17.14,17.14h61.927c4.58,0,8.294-3.713,8.294-8.294s-3.713-8.294-8.294-8.294H87.914
	c-0.305,0-0.553-0.248-0.553-0.553V233.33h27.093c4.58,0,8.294-3.713,8.294-8.294s-3.713-8.294-8.294-8.294H79.067
	c-4.58,0-8.294,3.713-8.294,8.294V278.117z"/>
<path d="M180.406,293.712c1.461,1.044,3.145,1.545,4.814,1.545c2.588,0,5.138-1.208,6.756-3.473l37.484-52.478l37.484,52.478
	c1.619,2.266,4.168,3.473,6.756,3.473c1.669,0,3.353-0.502,4.814-1.545c3.728-2.663,4.59-7.843,1.929-11.569l-40.79-57.106
	l40.79-57.106c2.663-3.728,1.799-8.907-1.929-11.569c-3.727-2.662-8.906-1.798-11.569,1.929l-88.467,123.853
	C175.815,285.87,176.679,291.049,180.406,293.712z"/>
<path d="M203.012,202.279c1.619,2.266,4.168,3.473,6.756,3.473c1.669,0,3.353-0.502,4.814-1.545
	c3.728-2.663,4.59-7.843,1.929-11.569l-24.535-34.348c-2.663-3.728-7.844-4.591-11.569-1.929c-3.728,2.663-4.59,7.843-1.929,11.569
	L203.012,202.279z"/>
<path d="M309.633,286.963c0,4.58,3.713,8.294,8.294,8.294s8.294-3.713,8.294-8.294v-79.62c0-4.58-3.713-8.294-8.294-8.294
	s-8.294,3.713-8.294,8.294V286.963z"/>
<path d="M317.927,180.249c4.58,0,8.294-3.713,8.294-8.294v-8.846c0-4.58-3.713-8.294-8.294-8.294s-8.294,3.713-8.294,8.294v8.846
	C309.633,176.536,313.346,180.249,317.927,180.249z"/>
<path d="M450.073,163.11c0-4.58-3.713-8.294-8.294-8.294h-88.467c-4.58,0-8.294,3.713-8.294,8.294s3.713,8.294,8.294,8.294h88.467
	C446.36,171.404,450.073,167.691,450.073,163.11z"/>
<path d="M389.253,198.497v88.467c0,4.58,3.713,8.294,8.294,8.294s8.294-3.713,8.294-8.294v-88.467c0-4.58-3.713-8.294-8.294-8.294
	S389.253,193.916,389.253,198.497z"/>
<path d="M486.013,92.89H25.987C11.658,92.89,0,104.548,0,118.877v194.626c0,4.58,3.713,8.294,8.294,8.294s8.294-3.713,8.294-8.294
	V118.877c0-5.183,4.217-9.4,9.4-9.4h460.026c5.183,0,9.4,4.217,9.4,9.4v274.246c0,5.183-4.217,9.4-9.4,9.4H25.987
	c-5.183,0-9.4-4.217-9.4-9.4v-35.387c0-0.305,0.248-0.553,0.553-0.553h398.354l-3.963,1.982c-4.097,2.048-5.758,7.03-3.709,11.127
	c1.453,2.906,4.381,4.587,7.425,4.586c1.246,0,2.511-0.282,3.702-0.877l35.387-17.693c2.81-1.404,4.585-4.276,4.585-7.418
	c0-3.142-1.775-6.013-4.585-7.418l-35.387-17.693c-4.094-2.048-9.078-0.388-11.127,3.709c-2.049,4.097-0.388,9.079,3.709,11.127
	l3.963,1.982H17.14c-9.452,0-17.14,7.689-17.14,17.14v35.387c0,14.329,11.658,25.987,25.987,25.987h460.026
	c14.329,0,25.987-11.658,25.987-25.987V118.877C512,104.548,500.342,92.89,486.013,92.89z"/>
<g>
</g>
<g>
</g>
<g>
</g>
<g>
</g>
<g>
</g>
<g>
</g>
<g>
</g>
<g>
</g>
<g>
</g>
<g>
</g>
<g>
</g>
<g>
</g>
<g>
</g>
<g>
</g>
<g>
</g>
</svg>
