<svg width="64" height="64" viewBox="0 0 64 64" fill="none" xmlns="http://www.w3.org/2000/svg">
<path d="M59 18H53V54H59V18Z" fill="#ffffff" id="id_101"></path>
<path d="M47 24H41V54H47V24Z" fill="#ffffff" id="id_102"></path>
<path d="M23 36H17V54H23V36Z" fill="#ffffff" id="id_103"></path>
<path d="M11 42H5V54H11V42Z" fill="#ffffff" id="id_104"></path>
<path d="M60 57H4V60H60V57Z" fill="#ffffff" id="id_105"></path>
<path d="M35 30H29V54H35V30Z" fill="#ffffff" id="id_106"></path>
<path d="M48.95 4.14994L51.07 6.26994L42.34 14.9999H30.768C30.4713 13.6877 29.884 12.4586 29.0493 11.4035C28.2146 10.3483 27.1538 9.49379 25.9451 8.90297C24.7363 8.31214 23.4104 8.00002 22.0651 7.9896C20.7197 7.97918 19.3891 8.27072 18.1714 8.84276C16.9537 9.41479 15.8798 10.2527 15.0288 11.2949C14.1779 12.337 13.5716 13.5568 13.2546 14.8643C12.9376 16.1718 12.918 17.5338 13.1972 18.8499C13.4765 20.166 14.0474 21.4028 14.868 22.4689L5.168 32.1689L8 34.9999L17.967 25.0329C19.2168 25.6675 20.5984 25.9988 22 25.9999C24.0375 25.9957 26.0134 25.3013 27.6056 24.0301C29.1979 22.7589 30.3126 20.9859 30.768 18.9999H44L53.9 9.09994L56.02 11.2199L56.73 3.43994L48.95 4.14994ZM22 15.9999C24.243 15.9999 26 17.3179 26 18.9999C26 20.4209 24.741 21.5709 23 21.8999V22.9999C23 23.2652 22.8946 23.5195 22.7071 23.707C22.5196 23.8946 22.2652 23.9999 22 23.9999C21.7348 23.9999 21.4804 23.8946 21.2929 23.707C21.1054 23.5195 21 23.2652 21 22.9999V21.8999C19.259 21.5729 18 20.4229 18 18.9999C18 18.7347 18.1054 18.4804 18.2929 18.2928C18.4804 18.1053 18.7348 17.9999 19 17.9999C19.2652 17.9999 19.5196 18.1053 19.7071 18.2928C19.8946 18.4804 20 18.7347 20 18.9999C20 19.4079 20.779 19.9999 22 19.9999C23.221 19.9999 24 19.4079 24 18.9999C24 18.5919 23.221 17.9999 22 17.9999C19.757 17.9999 18 16.6819 18 14.9999C18 13.5789 19.259 12.4289 21 12.0999V10.9999C21 10.7347 21.1054 10.4804 21.2929 10.2928C21.4804 10.1053 21.7348 9.99994 22 9.99994C22.2652 9.99994 22.5196 10.1053 22.7071 10.2928C22.8946 10.4804 23 10.7347 23 10.9999V12.0999C24.741 12.4269 26 13.5769 26 14.9999C26 15.2652 25.8946 15.5195 25.7071 15.707C25.5196 15.8946 25.2652 15.9999 25 15.9999C24.7348 15.9999 24.4804 15.8946 24.2929 15.707C24.1054 15.5195 24 15.2652 24 14.9999C24 14.5919 23.221 13.9999 22 13.9999C20.779 13.9999 20 14.5919 20 14.9999C20 15.4079 20.779 15.9999 22 15.9999Z" fill="#ffffff" id="id_107"></path>
</svg>