<svg id="Layer_1" data-name="Layer 1" xmlns="http://www.w3.org/2000/svg" viewBox="0 0 128 128"><defs><style>.cls-1{fill:#2d3e50;}.cls-2{fill:#1d75b8;}</style></defs><title>b</title><path class="cls-1" d="M43.77067,43.93814l1.3564-6.99148a9.35958,9.35958,0,0,0-9.2727-10.62084H34.24319a9.35958,9.35958,0,0,0-9.2727,10.62084l1.3564,6.99148a8.88536,8.88536,0,0,0,17.44378,0Z" id="id_101" style="fill: rgb(255, 255, 255);"></path><path class="cls-1" d="M78.83336,40.44461a4.38914,4.38914,0,0,0-5.97921,1.653L64.18586,57.42527s-18.54658-2.45182-20.0414-2.64163a2.26552,2.26552,0,0,0-.45874-.01579h-.01579c-.05537-.00792-.10282-.01583-.15027-.02375a2.16909,2.16909,0,0,0-.85419.05537l-.22939-.0712L37.97545,59.189,35.57108,61.5775l-.62479.64063-.15819.15819-.174-.18194v-.05532l-.03167.03162-.03162-.03162v.05532l-.174.18194-.783-.79882L31.18951,59.189l-4.46069-4.46069-.22934.0712a2.17965,2.17965,0,0,0-.85419-.05537c-1.62925.21356-8.52588,1.62925-11.04094,2.15128a3.62583,3.62583,0,0,0-1.9298,1.04395,6.37165,6.37165,0,0,0-.94117,1.31292L5.64342,70.5305,3.16,75.11772l-.2768.5141a4.52219,4.52219,0,0,0-.04745,4.15223L11.156,96.2664a4.2148,4.2148,0,0,0,4.84823,2.175,2.83521,2.83521,0,0,0,.55364-.18189,3.69078,3.69078,0,0,0,.7909-.4429v3.7226A16.88036,16.88036,0,0,0,34.2291,118.41953h0A16.878,16.878,0,0,0,51.105,101.93274c.21015-9.08707.41974-18.9048.63213-26.44332.00792-.23726.03958-1.40778.07912-2.76024,0-.0949.00792-.19773.00792-.30055.06324-2.04049.12652-4.342.12652-4.38949L62.13746,67.968l4.45277-.03167H67.128a4.77543,4.77543,0,0,0,4.263-2.70487l9.2298-19.05282A4.398,4.398,0,0,0,78.83336,40.44461ZM17.34874,89.22741,12.8169,78.4316l4.53185-6.01874Z" id="id_102" style="fill: rgb(255, 255, 255);"></path><path class="cls-2" d="M122.77252,29.015c-.34963-.04624-.69925-.08572-1.04791-.12617a19.31988,19.31988,0,0,0-2.99253-7.19863q.33084-.41465.65687-.83506c.5933-.76185,1.17794-1.53238,1.73657-2.32795l-4.42666-4.42667c-.79557.55864-1.56609,1.14327-2.328,1.73657q-.42041.32507-.83505.65687a19.3247,19.3247,0,0,0-7.2073-2.99445q-.05923-.523-.12521-1.046c-.11943-.95738-.25042-1.91572-.418-2.8731H99.52483c-.16663.95738-.29762,1.91572-.418,2.8731q-.06646.523-.12425,1.046A19.31328,19.31328,0,0,0,91.77431,16.494q-.41464-.33229-.83505-.65687c-.76185-.59331-1.53141-1.17794-2.327-1.73657l-4.42763,4.42667c.55959.79557,1.14423,1.56609,1.73657,2.32795q.32651.419.65687.8341a19.32915,19.32915,0,0,0-2.99445,7.20826q-.523.05924-1.045.12521c-.95834.11944-1.91572.25042-2.87406.418v6.26051c.95834.16662,1.91572.29762,2.87406.418q.523.06645,1.045.12425A19.31908,19.31908,0,0,0,86.57327,43.445c-.22056.27738-.44112.55477-.65687.836-.59138.76378-1.17409,1.53527-1.73176,2.33276l4.42763,4.42666c.79749-.55671,1.569-1.13941,2.33276-1.73079.28124-.21575.55863-.43631.836-.65687a19.32364,19.32364,0,0,0,7.19285,2.9877c.03949.34867.07994.69829.12617,1.047.12136.95834.25427,1.91571.42476,2.87405h6.26051c.17047-.95835.30435-1.91572.42571-2.87405.04623-.34867.08572-.69829.12617-1.047a19.3258,19.3258,0,0,0,7.19188-2.9877c.27739.22055.55574.44112.837.65687.76282.59138,1.53431,1.17408,2.33277,1.73079l4.42666-4.42666c-.5567-.7975-1.13941-1.569-1.73175-2.33276-.21575-.2822-.43631-.5596-.65591-.837a19.32414,19.32414,0,0,0,2.98675-7.19189c.34866-.04046.69829-.07994,1.04791-.12618.95738-.12135,1.91572-.25427,2.87309-.42475V29.44074C124.68824,29.27026,123.7299,29.13639,122.77252,29.015ZM108.82988,44.7318a13.63779,13.63779,0,0,1-18.3356-5.987,13.38945,13.38945,0,0,1-.811-1.95521A13.60008,13.60008,0,0,1,90.501,26.38369a13.72578,13.72578,0,0,1,5.96675-5.96675,13.43365,13.43365,0,0,1,1.96869-.81868,13.659,13.659,0,0,1,8.43821.001,13.4181,13.4181,0,0,1,1.96773.81772,13.72585,13.72585,0,0,1,5.96675,5.96675,13.5964,13.5964,0,0,1,.00674,12.36115A13.72922,13.72922,0,0,1,108.82988,44.7318Z" id="id_103" style="fill: rgb(255, 255, 255);"></path><polygon class="cls-2" points="102.655 21.784 101.478 22.639 101.927 24.023 103.383 24.023 103.833 22.639 102.655 21.784" id="id_104" style="fill: rgb(255, 255, 255);"></polygon><polygon class="cls-2" points="112.04 27.17 110.71 26.578 109.736 27.661 110.465 28.921 111.888 28.617 112.04 27.17" id="id_105" style="fill: rgb(255, 255, 255);"></polygon><polygon class="cls-2" points="112.073 37.99 111.919 36.542 110.495 36.241 109.769 37.503 110.744 38.583 112.073 37.99" id="id_106" style="fill: rgb(255, 255, 255);"></polygon><polygon class="cls-2" points="102.722 43.434 103.899 42.577 103.447 41.193 101.991 41.196 101.543 42.581 102.722 43.434" id="id_107" style="fill: rgb(255, 255, 255);"></polygon><polygon class="cls-2" points="93.329 38.063 94.66 38.653 95.632 37.569 94.901 36.31 93.478 36.616 93.329 38.063" id="id_108" style="fill: rgb(252, 255, 255);"></polygon><polygon class="cls-2" points="93.278 27.243 93.434 28.69 94.858 28.989 95.583 27.727 94.606 26.648 93.278 27.243" id="id_109" style="fill: rgb(255, 255, 255);"></polygon><circle class="cls-2" cx="102.65508" cy="32.571" r="4.87105" id="id_110" style="fill: rgb(255, 255, 255);"></circle></svg>