<svg id="Слой_2" data-name="Слой 2" xmlns="http://www.w3.org/2000/svg" viewBox="0 0 101 101"><title>Artboard 2 copy 3</title><path d="M75,17.22v0a1.51,1.51,0,0,0-.09-.28l-.05-.1a1.5,1.5,0,0,0-.08-.15l0-.06a1.48,1.48,0,0,0-.42-.38l-.21-.11h0l-33-13.5A1.5,1.5,0,0,0,39,4V16H27.5A1.5,1.5,0,0,0,26,17.5v75A1.5,1.5,0,0,0,27.5,94h46A1.5,1.5,0,0,0,75,92.5v-75h0A1.49,1.49,0,0,0,75,17.22Zm-33-11L65.87,16H42ZM72,91H29V19H72Z" id="id_101" style="fill: rgb(255, 255, 255);"></path><path d="M38.92,34.5A11.76,11.76,0,0,0,49,46.12V53H44a1.5,1.5,0,0,0,0,3H57a1.5,1.5,0,0,0,0-3H52V46.17A11.76,11.76,0,0,0,62.42,34.5a1.5,1.5,0,0,0-1.5-1.5H40.42A1.5,1.5,0,0,0,38.92,34.5ZM59.3,36a8.75,8.75,0,0,1-17.24,0Z" id="id_102" style="fill: rgb(255, 255, 255);"></path><path d="M36,68.5A1.5,1.5,0,0,0,37.5,70h26a1.5,1.5,0,0,0,0-3h-26A1.5,1.5,0,0,0,36,68.5Z" id="id_103" style="fill: rgb(255, 255, 255);"></path><path d="M57.17,75h-13a1.5,1.5,0,0,0,0,3h13a1.5,1.5,0,0,0,0-3Z" id="id_104" style="fill: rgb(255, 255, 255);"></path></svg>