<?xml version="1.0" encoding="iso-8859-1"?>
<!-- Uploaded to: SVG Repo, www.svgrepo.com, Generator: SVG Repo Mixer Tools -->
<svg version="1.1" id="Layer_1" xmlns="http://www.w3.org/2000/svg" xmlns:xlink="http://www.w3.org/1999/xlink" 
	 viewBox="0 0 512 512" xml:space="preserve">
<path style="fill:#0076CF;" d="M511.344,274.266C511.77,268.231,512,262.143,512,256C512,114.615,397.385,0,256,0S0,114.615,0,256
	c0,117.769,79.53,216.949,187.809,246.801L511.344,274.266z"/>
<path style="fill:#00477D;" d="M511.344,274.266L314.991,77.913L119.096,434.087l68.714,68.714C209.522,508.787,232.385,512,256,512
	C391.243,512,501.976,407.125,511.344,274.266z"/>
<polygon style="fill:#FFFFFF;" points="278.328,333.913 255.711,77.913 119.096,77.913 119.096,311.652 "/>
<polygon style="fill:#E8E6E6;" points="392.904,311.652 392.904,155.826 337.252,133.565 314.991,77.913 255.711,77.913 
	256.067,333.913 "/>
<polygon style="fill:#FFFFFF;" points="314.991,155.826 314.991,77.913 392.904,155.826 "/>
<rect x="119.096" y="311.652" style="fill:#3CA8FA;" width="273.809" height="122.435"/>
<g>
	<path style="fill:#FFFFFF;" d="M198.892,346.387c13.546,0,21.341,6.659,21.341,18.465c0,12.412-7.795,19.601-21.341,19.601h-9.611
		v14.909H175.81v-52.975L198.892,346.387L198.892,346.387z M189.281,373.858h8.93c5.902,0,9.308-2.952,9.308-8.552
		c0-5.525-3.406-8.324-9.308-8.324h-8.93V373.858z"/>
	<path style="fill:#FFFFFF;" d="M266.175,399.362l-24.369-32.618v32.618h-12.637v-52.975h11.882l24.445,32.693v-32.693h12.563
		v52.975H266.175z"/>
	<path style="fill:#FFFFFF;" d="M337.395,372.42v20.66c-5.675,4.011-14.606,6.888-22.023,6.888
		c-16.12,0-28.305-11.655-28.305-27.094c0-15.362,12.487-26.941,29.212-26.941c7.87,0,16.196,3.027,21.644,7.87l-7.568,9.157
		c-3.86-3.557-9.233-5.751-14.152-5.751c-8.703,0-15.362,6.811-15.362,15.665c0,9.006,6.735,15.817,15.514,15.817
		c2.725,0,6.205-0.984,9.384-2.573V372.42H337.395z"/>
</g>
</svg>