<?xml version="1.0" encoding="iso-8859-1"?>
<!-- Generator: Adobe Illustrator 19.0.0, SVG Export Plug-In . SVG Version: 6.00 Build 0)  -->
<svg version="1.1" id="Layer_1" xmlns="http://www.w3.org/2000/svg" xmlns:xlink="http://www.w3.org/1999/xlink" x="0px" y="0px"
	 viewBox="0 0 512 512" style="enable-background:new 0 0 512 512;" xml:space="preserve">
<rect x="8.017" y="66.528" style="fill:#E6EAEA;" width="376.251" height="307.841"/>
<rect x="8.017" y="66.528" style="fill:#CDD4D5;" width="188.125" height="307.841"/>
<rect x="59.324" y="169.142" style="fill:#687F82;" width="68.409" height="68.409"/>
<g>
	<rect x="161.937" y="169.142" style="fill:#9BAAAB;" width="68.409" height="68.409"/>
	<rect x="264.551" y="169.142" style="fill:#9BAAAB;" width="68.409" height="68.409"/>
</g>
<rect x="59.324" y="271.756" style="fill:#687F82;" width="68.409" height="68.409"/>
<rect x="161.937" y="271.756" style="fill:#9BAAAB;" width="68.409" height="68.409"/>
<g>
	<rect x="161.937" y="169.142" style="fill:#687F82;" width="34.205" height="68.409"/>
	<rect x="161.937" y="271.756" style="fill:#687F82;" width="34.205" height="68.409"/>
</g>
<rect x="264.551" y="271.756" style="fill:#9BAAAB;" width="68.409" height="68.409"/>
<rect x="179.04" y="15.223" style="fill:#4ACFD9;" width="34.205" height="102.614"/>
<rect x="179.04" y="15.223" style="fill:#0295AA;" width="17.102" height="102.614"/>
<rect x="307.307" y="15.223" style="fill:#4ACFD9;" width="34.205" height="102.614"/>
<rect x="50.772" y="15.223" style="fill:#0295AA;" width="34.205" height="102.614"/>
<circle style="fill:#FF8C29;" cx="367.165" cy="359.961" r="136.818"/>
<g>
	<path style="fill:#FFFFFF;" d="M477.261,367.977c-4.428,0-8.017-3.588-8.017-8.017c0-11.734-1.983-23.243-5.895-34.208
		c-1.488-4.17,0.687-8.755,4.858-10.244c4.167-1.487,8.756,0.686,10.244,4.858c4.529,12.697,6.826,26.019,6.826,39.594
		C485.278,364.387,481.689,367.977,477.261,367.977z"/>
	<path style="fill:#FFFFFF;" d="M457.729,305.425c-2.541,0-5.04-1.206-6.597-3.451c-13.54-19.54-33.509-33.84-56.227-40.264
		c-4.26-1.205-6.737-5.634-5.533-9.896c1.205-4.261,5.633-6.739,9.896-5.533c26.289,7.433,49.388,23.969,65.043,46.561
		c2.52,3.639,1.615,8.633-2.025,11.155C460.895,304.962,459.302,305.425,457.729,305.425z"/>
</g>
<circle style="fill:#E6EAEA;" cx="367.165" cy="359.961" r="82.818"/>
<path style="fill:#FD6A33;" d="M367.165,496.778V223.142c-75.562,0-136.818,61.256-136.818,136.818
	C230.347,435.523,291.603,496.778,367.165,496.778z"/>
<path style="fill:#CDD4D5;" d="M284.345,359.96c0,45.74,37.08,82.82,82.82,82.82V277.14
	C321.425,277.14,284.345,314.22,284.345,359.96z"/>
<path style="fill:#F0353D;" d="M414.196,373.836h-47.031c-4.428,0-8.017-3.588-8.017-8.017v-47.031c0-4.428,3.588-8.017,8.017-8.017
	c4.428,0,8.017,3.588,8.017,8.017v39.015h39.015c4.428,0,8.017,3.588,8.017,8.017S418.625,373.836,414.196,373.836z"/>
<path d="M127.733,161.127H59.324c-4.428,0-8.017,3.588-8.017,8.017v68.409c0,4.428,3.588,8.017,8.017,8.017h68.409
	c4.428,0,8.017-3.588,8.017-8.017v-68.409C135.749,164.716,132.161,161.127,127.733,161.127z M119.716,229.536H67.34V177.16h52.376
	V229.536z"/>
<path d="M161.937,245.569h68.409c4.428,0,8.017-3.588,8.017-8.017v-68.409c0-4.428-3.588-8.017-8.017-8.017h-68.409
	c-4.428,0-8.017,3.588-8.017,8.017v68.409C153.921,241.981,157.509,245.569,161.937,245.569z M169.954,177.16h52.376v52.376h-52.376
	V177.16z"/>
<path d="M127.733,263.74H59.324c-4.428,0-8.017,3.588-8.017,8.017v68.409c0,4.428,3.588,8.017,8.017,8.017h68.409
	c4.428,0,8.017-3.588,8.017-8.017v-68.409C135.749,267.33,132.161,263.74,127.733,263.74z M119.716,332.15H67.34v-52.376h52.376
	V332.15z"/>
<path d="M392.284,217.303V66.53c0-4.428-3.588-8.017-8.017-8.017h-34.739v-43.29c0-4.428-3.588-8.017-8.017-8.017h-34.205
	c-4.428,0-8.017,3.588-8.017,8.017v43.29h-78.029v-43.29c0-4.428-3.588-8.017-8.017-8.017H179.04c-4.428,0-8.017,3.588-8.017,8.017
	v43.29H92.994v-43.29c0-4.428-3.588-8.017-8.017-8.017H50.772c-4.428,0-8.017,3.588-8.017,8.017v43.29H8.017
	C3.588,58.513,0,62.101,0,66.53v307.841c0,4.428,3.588,8.017,8.017,8.017h216.051c5.078,32.621,21.191,62.556,45.872,84.923
	c26.672,24.172,61.201,37.484,97.225,37.484c79.862,0,144.835-64.973,144.835-144.835C512,289.425,461.016,229.312,392.284,217.303z
	 M315.324,23.239h18.171v43.29v43.29h-18.171V66.53V23.239z M187.056,23.239h18.171v43.29v43.29h-18.171V66.53V23.239z
	 M58.789,23.239H76.96v43.29v43.29H58.789V66.53V23.239z M16.033,74.546h26.722v43.29c0,4.428,3.588,8.017,8.017,8.017h34.205
	c4.428,0,8.017-3.588,8.017-8.017v-43.29h78.029v43.29c0,4.428,3.588,8.017,8.017,8.017h34.205c4.428,0,8.017-3.588,8.017-8.017
	v-43.29h78.029v43.29c0,4.428,3.588,8.017,8.017,8.017h34.205c4.428,0,8.017-3.588,8.017-8.017v-43.29h26.722v140.862
	c-3.029-0.188-6.065-0.283-9.086-0.283c-8.812,0-17.581,0.807-26.188,2.378v-48.359c0-4.428-3.588-8.017-8.017-8.017h-68.409
	c-4.428,0-8.017,3.588-8.017,8.017v68.409c0,4.428,3.588,8.017,8.017,8.017h13.797c-13.271,10.313-24.725,22.889-33.776,37.241
	c-2.24,3.552-4.297,7.198-6.209,10.909v-21.963c0-4.428-3.588-8.017-8.017-8.017h-68.409c-4.428,0-8.017,3.588-8.017,8.017v68.409
	c0,4.428,3.588,8.017,8.017,8.017h60.886c-0.316,3.906-0.494,7.832-0.494,11.777c0,2.122,0.058,4.257,0.152,6.394H16.033V74.546z
	 M304.161,229.536h-31.593V177.16h52.376v44.232C317.841,223.557,310.88,226.285,304.161,229.536z M222.33,279.774v52.376h-52.376
	v-52.376H222.33z M367.165,488.762c-66.138,0-121.2-49.524-128.088-115.2c-0.001-0.01-0.002-0.019-0.003-0.028
	c-0.471-4.506-0.711-9.074-0.711-13.574c0-49.081,27.287-93.234,71.213-115.233c0.003-0.002,0.007-0.003,0.011-0.004
	c8.118-4.064,16.653-7.262,25.368-9.505c0.001,0,0.002,0,0.003-0.001c10.459-2.694,21.296-4.059,32.206-4.059
	c5.368,0,10.788,0.337,16.109,1c0.001,0,0.002,0,0.002,0c64.246,8.012,112.691,62.955,112.691,127.801
	C495.967,430.982,438.186,488.762,367.165,488.762z"/>
<path d="M367.165,269.123c-50.087,0-90.836,40.748-90.836,90.836s40.748,90.837,90.836,90.837s90.836-40.749,90.836-90.837
	S417.252,269.123,367.165,269.123z M367.165,434.763c-41.246,0-74.802-33.557-74.802-74.803s33.557-74.802,74.802-74.802
	s74.802,33.557,74.802,74.802C441.967,401.208,408.411,434.763,367.165,434.763z"/>
<g>
</g>
<g>
</g>
<g>
</g>
<g>
</g>
<g>
</g>
<g>
</g>
<g>
</g>
<g>
</g>
<g>
</g>
<g>
</g>
<g>
</g>
<g>
</g>
<g>
</g>
<g>
</g>
<g>
</g>
</svg>
