<svg xmlns="http://www.w3.org/2000/svg" viewBox="0 0 48 48"><defs><style>.cls-1{fill:#c6512b;}.cls-2{fill:#8fa5a5;}.cls-3{fill:#d4d8d8;}.cls-4{fill:#e67244;}.cls-5{fill:#eaeff0;}.cls-6{fill:#ffd188;}</style></defs><title>Dining Table</title><g id="Dining_Table" data-name="Dining Table"><path class="cls-1" d="M22,22V37.465a1,1,0,0,1-.445.832L19.445,39.7a1,1,0,0,0-.445.832V41a1,1,0,0,0,1,1h8a1,1,0,0,0,1-1v-.465a1,1,0,0,0-.445-.832L26.445,38.3A1,1,0,0,1,26,37.465V22a1,1,0,0,0-1-1H23A1,1,0,0,0,22,22Z" id="id_123" style="fill: rgb(255, 255, 255);"></path><path class="cls-2" d="M26,6H22a1,1,0,0,0,0,2h1v2a1,1,0,0,0,2,0V8h1a1,1,0,0,0,0-2Z" id="id_124"></path><path class="cls-3" d="M33,20H15a1,1,0,0,1-1-1,10,10,0,0,1,20,0A1,1,0,0,1,33,20Z" id="id_125"></path><path class="cls-4" d="M37,23H10a2,2,0,0,1-2-2V20a2,2,0,0,1,2-2H37a2,2,0,0,1,2,2v1A2,2,0,0,1,37,23Z" id="id_126" style="fill: rgb(255, 255, 255);"></path><path class="cls-5" d="M18.444,15.738a1,1,0,0,1-.793-1.609,8.036,8.036,0,0,1,4.617-2.941,1,1,0,1,1,.433,1.953,6.026,6.026,0,0,0-3.462,2.205A1,1,0,0,1,18.444,15.738Z" id="id_127"></path><path class="cls-1" d="M32.106,42a1,1,0,0,0,.97-.758l2.364-9.5a1,1,0,0,0-1.941-.484l-2.365,9.5a1,1,0,0,0,.73,1.212A.961.961,0,0,0,32.106,42Z" id="id_128" style="fill: rgb(255, 255, 255);"></path><path class="cls-1" d="M45.1,42a1.018,1.018,0,0,0,.218-.024,1,1,0,0,0,.76-1.193l-2-9a1,1,0,0,0-1.953.434l2,9A1,1,0,0,0,45.1,42Z" id="id_129" style="fill: rgb(255, 255, 255);"></path><path class="cls-6" d="M31.421,32.227a1.993,1.993,0,0,1-.357-1.727h0l.285-1.106a2.99,2.99,0,0,1,2.894-2.25h6.164L43,17.481A2,2,0,0,1,44.921,16h1.086a2,2,0,0,1,1.976,2.264L46.375,30.4A3,3,0,0,1,43.412,33H33A1.98,1.98,0,0,1,31.421,32.227Z" id="id_130" style="fill: rgb(255, 255, 255);"></path><path class="cls-1" d="M15.9,42a1,1,0,0,1-.97-.758l-2.364-9.5a1,1,0,0,1,1.941-.484l2.364,9.5a1,1,0,0,1-.729,1.212A.961.961,0,0,1,15.9,42Z" id="id_131" style="fill: rgb(255, 255, 255);"></path><path class="cls-1" d="M2.9,42a1,1,0,0,1-.977-1.217l2-9a1,1,0,0,1,1.953.434l-2,9A1,1,0,0,1,2.9,42Z" id="id_132" style="fill: rgb(255, 255, 255);"></path><path class="cls-6" d="M15.005,33H4.589a3,3,0,0,1-2.963-2.6L.018,18.264A2,2,0,0,1,1.994,16H3.08a2,2,0,0,1,1.926,1.481l2.587,9.662h6.164a2.988,2.988,0,0,1,2.893,2.25l.286,1.106h0A2,2,0,0,1,15.005,33Z" id="id_133" style="fill: rgb(255, 255, 255);"></path></g></svg>