<svg version="1.1" xmlns="http://www.w3.org/2000/svg" xmlns:xlink="http://www.w3.org/1999/xlink" x="0px" y="0px" width="512px" height="512px" viewBox="0 0 512 512" style="enable-background:new 0 0 512 512;" xml:space="preserve">
<g id="_x32_57_x2C__checklist_x2C__clipboard_x2C__tasks_x2C__wishlist_x2C__todo">
<g>
<g>
<path style="fill:#ECF0F1;" d="M133.5,87.25c-15.19,0-27.5,12.31-27.5,27.5v342.5c0,15.19,12.31,27.5,27.5,27.5h245
				c15.19,0,27.5-12.31,27.5-27.5v-342.5c0-15.19-12.31-27.5-27.5-27.5H133.5z" id="id_101"></path>
<path style="fill:#ECF0F1;" d="M46,417.25c11.05,0,20,8.95,20,20s-8.95,20-20,20s-20-8.95-20-20S34.95,417.25,46,417.25z" id="id_102"></path>
<path style="fill:#ECF0F1;" d="M61,127.25c8.28,0,15,6.72,15,15s-6.72,15-15,15s-15-6.72-15-15S52.72,127.25,61,127.25z" id="id_103"></path>
<path style="fill:#ECF0F1;" d="M461,47.25c13.81,0,25,11.19,25,25s-11.19,25-25,25s-25-11.19-25-25S447.19,47.25,461,47.25z" id="id_104"></path>
<path style="fill:#57606F;" d="M337.21,66.04c5.43,5.42,8.79,12.92,8.79,21.21c0,16.57-13.43,30-30,30H196
				c-8.28,0-15.78-3.36-21.21-8.79c-5.43-5.42-8.79-12.92-8.79-21.21c0-16.57,13.43-30,30-30h30c0-16.57,13.43-30,30-30
				c16.57,0,30,13.43,30,30h30C324.28,57.25,331.78,60.61,337.21,66.04z" id="id_105"></path>
<path style="fill:#80AF52;" d="M212.64,397.27c2.15,4.54,3.36,9.62,3.36,14.98c0,19.33-15.67,35-35,35s-35-15.67-35-35
				s15.67-35,35-35C194.97,377.25,207.02,385.43,212.64,397.27z" id="id_106"></path>
<path style="fill:#80AF52;" d="M212.64,287.27c2.15,4.54,3.36,9.62,3.36,14.98c0,19.33-15.67,35-35,35s-35-15.67-35-35
				s15.67-35,35-35C194.97,267.25,207.02,275.43,212.64,287.27z" id="id_107"></path>
<path style="fill:#80AF52;" d="M212.64,177.27c2.15,4.54,3.36,9.62,3.36,14.98c0,19.33-15.67,35-35,35s-35-15.67-35-35
				s15.67-35,35-35C194.97,157.25,207.02,165.43,212.64,177.27z" id="id_108"></path>
<path style="fill:#3C3B3D;" d="M186.003,207.25c-2.575,0-5.136-0.991-7.074-2.929l-10-10c-3.905-3.905-3.905-10.237,0-14.143
				c3.905-3.905,10.237-3.905,14.143,0l3.867,3.868L220,159.25c4.419-3.314,10.687-2.418,14,2c3.313,4.418,2.418,10.686-2,14l-40,30
				C190.212,206.591,188.103,207.25,186.003,207.25z" id="id_109"></path>
<path style="fill:#AFB9D2;" d="M366,187.25h-80c-5.522,0-10-4.477-10-10s4.478-10,10-10h80c5.522,0,10,4.477,10,10
				S371.522,187.25,366,187.25z" id="id_110"></path>
<path style="fill:#AFB9D2;" d="M366,217.25H256c-5.523,0-10-4.477-10-10s4.477-10,10-10h110c5.522,0,10,4.477,10,10
				S371.522,217.25,366,217.25z" id="id_111"></path>
<path style="fill:#3C3B3D;" d="M186.003,317.25c-2.575,0-5.136-0.99-7.074-2.929l-10-10c-3.905-3.905-3.905-10.237,0-14.143
				c3.905-3.904,10.237-3.904,14.143,0l3.867,3.867L220,269.25c4.419-3.313,10.687-2.417,14,2c3.314,4.419,2.418,10.687-2,14l-40,30
				C190.212,316.591,188.103,317.25,186.003,317.25z" id="id_112"></path>
<path style="fill:#AFB9D2;" d="M366,297.25h-80c-5.522,0-10-4.478-10-10s4.478-10,10-10h80c5.522,0,10,4.478,10,10
				S371.522,297.25,366,297.25z" id="id_113"></path>
<path style="fill:#AFB9D2;" d="M366,327.25H256c-5.523,0-10-4.478-10-10s4.477-10,10-10h110c5.522,0,10,4.478,10,10
				S371.522,327.25,366,327.25z" id="id_114"></path>
<path style="fill:#3C3B3D;" d="M186.003,427.25c-2.575,0-5.136-0.99-7.074-2.929l-10-10c-3.905-3.905-3.905-10.237,0-14.143
				c3.905-3.904,10.237-3.904,14.143,0l3.867,3.867L220,379.25c4.419-3.313,10.687-2.417,14,2c3.314,4.419,2.418,10.687-2,14l-40,30
				C190.212,426.591,188.103,427.25,186.003,427.25z" id="id_115"></path>
<path style="fill:#AFB9D2;" d="M366,407.25h-80c-5.522,0-10-4.478-10-10s4.478-10,10-10h80c5.522,0,10,4.478,10,10
				S371.522,407.25,366,407.25z" id="id_116"></path>
<path style="fill:#AFB9D2;" d="M366,437.25H256c-5.523,0-10-4.478-10-10s4.477-10,10-10h110c5.522,0,10,4.478,10,10
				S371.522,437.25,366,437.25z" id="id_117"></path>
<path style="fill:#AFB9D2;" d="M476,427.25h-40c-5.522,0-10-4.478-10-10s4.478-10,10-10h40c5.522,0,10,4.478,10,10
				S481.522,427.25,476,427.25z" id="id_118"></path>
<path style="fill:#AFB9D2;" d="M476,397.25h-40c-5.522,0-10-4.478-10-10s4.478-10,10-10h40c5.522,0,10,4.478,10,10
				S481.522,397.25,476,397.25z" id="id_119"></path>
<path style="fill:#AFB9D2;" d="M476,367.25h-40c-5.522,0-10-4.478-10-10s4.478-10,10-10h40c5.522,0,10,4.478,10,10
				S481.522,367.25,476,367.25z" id="id_120"></path>
<path style="fill:#AFB9D2;" d="M476,337.25h-40c-5.522,0-10-4.478-10-10s4.478-10,10-10h40c5.522,0,10,4.478,10,10
				S481.522,337.25,476,337.25z" id="id_121"></path>
<path style="fill:#AFB9D2;" d="M476,307.25h-40c-5.522,0-10-4.478-10-10s4.478-10,10-10h40c5.522,0,10,4.478,10,10
				S481.522,307.25,476,307.25z" id="id_122"></path>
</g>
</g>
</g>
<g id="Layer_1">
</g>
</svg>